<svg width="82" height="82" viewBox="0 0 82 82" fill="none" xmlns="http://www.w3.org/2000/svg">
<path fill-rule="evenodd" clip-rule="evenodd" d="M30.7501 41H23.0011C22.2489 42.3027 21.088 43.3209 19.6982 43.8965C18.3085 44.4722 16.7676 44.5732 15.3146 44.1838C13.8616 43.7945 12.5777 42.9366 11.662 41.7432C10.7462 40.5498 10.2499 39.0876 10.2499 37.5833C10.2499 36.0791 10.7462 34.6169 11.662 33.4235C12.5777 32.2301 13.8616 31.3722 15.3146 30.9828C16.7676 30.5935 18.3085 30.6945 19.6982 31.2702C21.088 31.8458 22.2489 32.8639 23.0011 34.1667H30.7501V17.0833C30.7501 15.271 31.47 13.5329 32.7515 12.2514C34.033 10.9699 35.7711 10.25 37.5834 10.25H64.9167C66.729 10.25 68.4671 10.9699 69.7486 12.2514C71.0301 13.5329 71.7501 15.271 71.7501 17.0833V64.9167C71.7501 66.729 71.0301 68.4671 69.7486 69.7486C68.4671 71.0301 66.729 71.75 64.9167 71.75H37.5834C35.7711 71.75 34.033 71.0301 32.7515 69.7486C31.47 68.4671 30.7501 66.729 30.7501 64.9167V41ZM37.5834 41V64.9167H64.9167V17.0833H37.5834V34.1667H45.3324C46.0845 32.8639 47.2455 31.8458 48.6352 31.2702C50.025 30.6945 51.5658 30.5935 53.0188 30.9828C54.4718 31.3722 55.7557 32.2301 56.6715 33.4235C57.5872 34.6169 58.0836 36.0791 58.0836 37.5833C58.0836 39.0876 57.5872 40.5498 56.6715 41.7432C55.7557 42.9366 54.4718 43.7945 53.0188 44.1838C51.5658 44.5732 50.025 44.4722 48.6352 43.8965C47.2455 43.3209 46.0845 42.3027 45.3324 41H37.5834Z" fill="#FF5886"/>
</svg>
