<svg width="82" height="82" viewBox="0 0 82 82" fill="none" xmlns="http://www.w3.org/2000/svg">
<path d="M18.4502 16.4C15.7317 16.4 13.1246 17.4799 11.2024 19.4022C9.2801 21.3244 8.2002 23.9316 8.2002 26.65V55.35C8.2002 58.0685 9.2801 60.6756 11.2024 62.5979C13.1246 64.5201 15.7317 65.6 18.4502 65.6H63.5502C66.2687 65.6 68.8758 64.5201 70.798 62.5979C72.7203 60.6756 73.8002 58.0685 73.8002 55.35V26.65C73.8002 23.9316 72.7203 21.3244 70.798 19.4022C68.8758 17.4799 66.2687 16.4 63.5502 16.4H18.4502ZM12.3002 26.65C12.3002 25.0189 12.9481 23.4547 14.1015 22.3013C15.2548 21.148 16.8191 20.5 18.4502 20.5H63.5502C65.1813 20.5 66.7455 21.148 67.8989 22.3013C69.0522 23.4547 69.7002 25.0189 69.7002 26.65V55.35C69.7002 56.9811 69.0522 58.5454 67.8989 59.6987C66.7455 60.8521 65.1813 61.5 63.5502 61.5H18.4502C16.8191 61.5 15.2548 60.8521 14.1015 59.6987C12.9481 58.5454 12.3002 56.9811 12.3002 55.35V26.65ZM18.4502 24.6C17.9065 24.6 17.3851 24.816 17.0006 25.2005C16.6162 25.5849 16.4002 26.1063 16.4002 26.65C16.4002 27.1937 16.6162 27.7151 17.0006 28.0996C17.3851 28.484 17.9065 28.7 18.4502 28.7H38.9502C39.4939 28.7 40.0153 28.484 40.3998 28.0996C40.7842 27.7151 41.0002 27.1937 41.0002 26.65C41.0002 26.1063 40.7842 25.5849 40.3998 25.2005C40.0153 24.816 39.4939 24.6 38.9502 24.6H18.4502ZM18.4502 32.8C17.9065 32.8 17.3851 33.016 17.0006 33.4005C16.6162 33.7849 16.4002 34.3063 16.4002 34.85C16.4002 35.3937 16.6162 35.9151 17.0006 36.2996C17.3851 36.684 17.9065 36.9 18.4502 36.9H51.2502C51.7939 36.9 52.3153 36.684 52.6998 36.2996C53.0842 35.9151 53.3002 35.3937 53.3002 34.85C53.3002 34.3063 53.0842 33.7849 52.6998 33.4005C52.3153 33.016 51.7939 32.8 51.2502 32.8H18.4502ZM20.5002 45.1C19.4128 45.1 18.37 45.532 17.6011 46.3009C16.8322 47.0698 16.4002 48.1126 16.4002 49.2V53.3C16.4002 54.3874 16.8322 55.4303 17.6011 56.1992C18.37 56.9681 19.4128 57.4 20.5002 57.4H36.9002C37.9876 57.4 39.0304 56.9681 39.7993 56.1992C40.5682 55.4303 41.0002 54.3874 41.0002 53.3V49.2C41.0002 48.1126 40.5682 47.0698 39.7993 46.3009C39.0304 45.532 37.9876 45.1 36.9002 45.1H20.5002Z" fill="#6B9FFF"/>
</svg>
