<svg  viewBox="0 0 584 606" fill="none" xmlns="http://www.w3.org/2000/svg">
<g filter="url(#filter0_d_86_48)">
<path d="M158.22 120.107C173.454 116.976 188.815 124.864 195.148 139.069L348.346 482.722C355.774 499.385 348.333 518.918 331.7 526.414L302.152 539.733C285.384 547.292 265.669 539.744 258.235 522.921L103.333 172.371C94.7954 153.05 106.277 130.781 126.967 126.529L158.22 120.107Z" fill="url(#paint0_linear_86_48)"/>
<path d="M347.29 483.192C354.459 499.274 347.278 518.126 331.226 525.361L301.677 538.68C285.494 545.974 266.466 538.69 259.292 522.454L104.39 171.904C96.1507 153.257 107.231 131.765 127.2 127.661L158.452 121.239C173.155 118.218 187.98 125.83 194.092 139.54L347.29 483.192Z" stroke="url(#paint1_linear_86_48)" stroke-width="2.31138"/>
</g>
<g filter="url(#filter1_d_86_48)">
<path d="M134.744 89.0567C148.573 81.94 165.491 85.4006 175.414 97.3761L415.482 387.09C427.122 401.138 425.215 421.953 411.216 433.651L386.344 454.434C372.231 466.228 351.211 464.267 339.522 450.067L95.9567 154.169C82.5323 137.86 87.5935 113.322 106.376 103.656L134.744 89.0567Z" fill="url(#paint2_linear_86_48)"/>
<path d="M414.592 387.828C425.826 401.386 423.986 421.474 410.475 432.765L385.603 453.548C371.982 464.93 351.696 463.038 340.414 449.333L96.8493 153.434C83.8932 137.695 88.7775 114.013 106.904 104.684L135.273 90.0846C148.62 83.2161 164.947 86.5562 174.524 98.114L414.592 387.828Z" stroke="url(#paint3_linear_86_48)" stroke-width="2.31138"/>
</g>
<g filter="url(#filter2_d_86_48)">
<path d="M147.953 89.5487C159.668 84.7166 173.081 86.5952 183.018 94.46L474.119 324.848C491.912 338.93 490.601 366.329 471.544 378.648L442.443 397.461C430.44 405.221 414.813 404.408 403.68 395.444L100.03 150.966C84.6358 138.572 88.1514 114.213 106.422 106.678L147.953 89.5487Z" fill="url(#paint4_linear_86_48)"/>
<path d="M473.401 325.754C490.574 339.345 489.309 365.788 470.917 377.677L441.815 396.49C430.231 403.979 415.15 403.195 404.405 394.544L100.754 150.066C86.0448 138.222 89.404 114.946 106.862 107.746L148.393 90.6166C159.722 85.9442 172.692 87.7615 182.301 95.3665L473.401 325.754Z" stroke="url(#paint5_linear_86_48)" stroke-width="2.31138"/>
</g>
<g filter="url(#filter3_d_86_48)">
<path d="M141.049 80.823C151.78 74.081 165.317 73.6665 176.44 79.7393L502.28 257.633C522.197 268.507 525.534 295.733 508.833 311.095L483.328 334.554C472.808 344.23 457.269 346.069 444.782 339.115L104.191 149.454C86.9247 139.839 86.2743 115.236 103.009 104.723L141.049 80.823Z" fill="url(#paint6_linear_86_48)"/>
<path d="M501.726 258.647C520.948 269.142 524.169 295.418 508.051 310.244L482.545 333.703C472.392 343.042 457.396 344.817 445.344 338.105L104.753 148.444C88.2545 139.257 87.6327 115.747 103.623 105.701L141.664 81.801C152.04 75.2818 165.13 74.8817 175.886 80.7539L501.726 258.647Z" stroke="url(#paint7_linear_86_48)" stroke-width="2.31138"/>
</g>
<g filter="url(#filter4_d_86_48)">
<path d="M134.928 74.502C144.501 66.197 157.815 63.7154 169.737 68.0142L518.965 193.94C540.312 201.637 547.777 228.031 533.623 245.769L512.01 272.855C503.095 284.027 488.021 288.223 474.616 283.262L109.009 147.965C90.4747 141.106 86.0665 116.894 100.994 103.942L134.928 74.502Z" fill="url(#paint8_linear_86_48)"/>
<path d="M518.573 195.027C539.175 202.456 546.38 227.929 532.72 245.048L511.106 272.134C502.502 282.917 487.954 286.966 475.017 282.178L109.411 146.882C91.6997 140.328 87.4871 117.191 101.752 104.815L135.686 75.3744C144.942 67.3439 157.817 64.9449 169.345 69.1017L518.573 195.027Z" stroke="url(#paint9_linear_86_48)" stroke-width="2.31138"/>
</g>
<g filter="url(#filter5_d_86_48)">
<path d="M131.736 62.2124C139.713 52.3641 152.389 47.5968 164.878 49.7488L530.725 112.788C553.087 116.641 565.045 141.327 554.204 161.263L537.65 191.706C530.822 204.263 516.711 211.025 502.647 208.48L119.038 139.072C99.5902 135.553 91.0236 112.482 103.462 97.1237L131.736 62.2124Z" fill="url(#paint10_linear_86_48)"/>
<path d="M530.529 113.927C552.111 117.645 563.651 141.47 553.189 160.71L536.634 191.154C530.045 203.272 516.426 209.799 502.853 207.343L119.243 137.935C100.66 134.573 92.4742 112.526 104.36 97.8507L132.634 62.9393C140.347 53.4164 152.605 48.8072 164.682 50.888L530.529 113.927Z" stroke="url(#paint11_linear_86_48)" stroke-width="2.31138"/>
</g>
<defs>
<filter id="filter0_d_86_48" x="100.487" y="119.426" width="273.837" height="450.343" filterUnits="userSpaceOnUse" color-interpolation-filters="sRGB">
<feFlood flood-opacity="0" result="BackgroundImageFix"/>
<feColorMatrix in="SourceAlpha" type="matrix" values="0 0 0 0 0 0 0 0 0 0 0 0 0 0 0 0 0 0 127 0" result="hardAlpha"/>
<feOffset dx="15" dy="19"/>
<feGaussianBlur stdDeviation="4.05"/>
<feComposite in2="hardAlpha" operator="out"/>
<feColorMatrix type="matrix" values="0 0 0 0 0 0 0 0 0 0 0 0 0 0 0 0 0 0 0.25 0"/>
<feBlend mode="normal" in2="BackgroundImageFix" result="effect1_dropShadow_86_48"/>
<feBlend mode="normal" in="SourceGraphic" in2="effect1_dropShadow_86_48" result="shape"/>
</filter>
<filter id="filter1_d_86_48" x="80.2993" y="78.2828" width="350.903" height="392.96" filterUnits="userSpaceOnUse" color-interpolation-filters="sRGB">
<feFlood flood-opacity="0" result="BackgroundImageFix"/>
<feColorMatrix in="SourceAlpha" type="matrix" values="0 0 0 0 0 0 0 0 0 0 0 0 0 0 0 0 0 0 127 0" result="hardAlpha"/>
<feOffset dy="1"/>
<feGaussianBlur stdDeviation="4.05"/>
<feComposite in2="hardAlpha" operator="out"/>
<feColorMatrix type="matrix" values="0 0 0 0 0 0 0 0 0 0 0 0 0 0 0 0 0 0 0.25 0"/>
<feBlend mode="normal" in2="BackgroundImageFix" result="effect1_dropShadow_86_48"/>
<feBlend mode="normal" in="SourceGraphic" in2="effect1_dropShadow_86_48" result="shape"/>
</filter>
<filter id="filter2_d_86_48" x="82.2298" y="83.8043" width="412.559" height="332.064" filterUnits="userSpaceOnUse" color-interpolation-filters="sRGB">
<feFlood flood-opacity="0" result="BackgroundImageFix"/>
<feColorMatrix in="SourceAlpha" type="matrix" values="0 0 0 0 0 0 0 0 0 0 0 0 0 0 0 0 0 0 127 0" result="hardAlpha"/>
<feOffset dy="5"/>
<feGaussianBlur stdDeviation="4.05"/>
<feComposite in2="hardAlpha" operator="out"/>
<feColorMatrix type="matrix" values="0 0 0 0 0 0 0 0 0 0 0 0 0 0 0 0 0 0 0.25 0"/>
<feBlend mode="normal" in2="BackgroundImageFix" result="effect1_dropShadow_86_48"/>
<feBlend mode="normal" in="SourceGraphic" in2="effect1_dropShadow_86_48" result="shape"/>
</filter>
<filter id="filter3_d_86_48" x="83.7403" y="75.4592" width="444.897" height="284.942" filterUnits="userSpaceOnUse" color-interpolation-filters="sRGB">
<feFlood flood-opacity="0" result="BackgroundImageFix"/>
<feColorMatrix in="SourceAlpha" type="matrix" values="0 0 0 0 0 0 0 0 0 0 0 0 0 0 0 0 0 0 127 0" result="hardAlpha"/>
<feOffset dx="1" dy="9"/>
<feGaussianBlur stdDeviation="4.05"/>
<feComposite in2="hardAlpha" operator="out"/>
<feColorMatrix type="matrix" values="0 0 0 0 0 0 0 0 0 0 0 0 0 0 0 0 0 0 0.25 0"/>
<feBlend mode="normal" in2="BackgroundImageFix" result="effect1_dropShadow_86_48"/>
<feBlend mode="normal" in="SourceGraphic" in2="effect1_dropShadow_86_48" result="shape"/>
</filter>
<filter id="filter4_d_86_48" x="88.9251" y="65.9385" width="465.046" height="236.485" filterUnits="userSpaceOnUse" color-interpolation-filters="sRGB">
<feFlood flood-opacity="0" result="BackgroundImageFix"/>
<feColorMatrix in="SourceAlpha" type="matrix" values="0 0 0 0 0 0 0 0 0 0 0 0 0 0 0 0 0 0 127 0" result="hardAlpha"/>
<feOffset dx="5" dy="9"/>
<feGaussianBlur stdDeviation="4.05"/>
<feComposite in2="hardAlpha" operator="out"/>
<feColorMatrix type="matrix" values="0 0 0 0 0 0 0 0 0 0 0 0 0 0 0 0 0 0 0.25 0"/>
<feBlend mode="normal" in2="BackgroundImageFix" result="effect1_dropShadow_86_48"/>
<feBlend mode="normal" in="SourceGraphic" in2="effect1_dropShadow_86_48" result="shape"/>
</filter>
<filter id="filter5_d_86_48" x="94.5421" y="49.2397" width="476.813" height="182.871" filterUnits="userSpaceOnUse" color-interpolation-filters="sRGB">
<feFlood flood-opacity="0" result="BackgroundImageFix"/>
<feColorMatrix in="SourceAlpha" type="matrix" values="0 0 0 0 0 0 0 0 0 0 0 0 0 0 0 0 0 0 127 0" result="hardAlpha"/>
<feOffset dx="5" dy="15"/>
<feGaussianBlur stdDeviation="4.05"/>
<feComposite in2="hardAlpha" operator="out"/>
<feColorMatrix type="matrix" values="0 0 0 0 0 0 0 0 0 0 0 0 0 0 0 0 0 0 0.25 0"/>
<feBlend mode="normal" in2="BackgroundImageFix" result="effect1_dropShadow_86_48"/>
<feBlend mode="normal" in="SourceGraphic" in2="effect1_dropShadow_86_48" result="shape"/>
</filter>
<linearGradient id="paint0_linear_86_48" x1="111.167" y1="102.17" x2="374.948" y2="517.474" gradientUnits="userSpaceOnUse">
<stop offset="0.0811716" stop-color="#FFCBA0"/>
<stop offset="0.320335" stop-color="#FFA7E2"/>
<stop offset="0.704696" stop-color="#FFA7E2"/>
<stop offset="0.971703" stop-color="#AFC4FF"/>
</linearGradient>
<linearGradient id="paint1_linear_86_48" x1="194.051" y1="425.471" x2="344.818" y2="397.554" gradientUnits="userSpaceOnUse">
<stop offset="0.393821" stop-color="#FFDAF4"/>
<stop offset="1" stop-color="#6D93FB"/>
</linearGradient>
<linearGradient id="paint2_linear_86_48" x1="84.6005" y1="84.4514" x2="450.459" y2="413.397" gradientUnits="userSpaceOnUse">
<stop offset="0.0811716" stop-color="#FFCBA0"/>
<stop offset="0.320335" stop-color="#FFA7E2"/>
<stop offset="0.704696" stop-color="#FFA7E2"/>
<stop offset="0.971703" stop-color="#AFC4FF"/>
</linearGradient>
<linearGradient id="paint3_linear_86_48" x1="251.471" y1="373.497" x2="389.153" y2="306.017" gradientUnits="userSpaceOnUse">
<stop offset="0.393821" stop-color="#FED4F2"/>
<stop offset="1" stop-color="#6D93FB"/>
</linearGradient>
<linearGradient id="paint4_linear_86_48" x1="65.5899" y1="87.7234" x2="490.562" y2="335.626" gradientUnits="userSpaceOnUse">
<stop offset="0.0811716" stop-color="#FFCBA0"/>
<stop offset="0.320335" stop-color="#FFA7E2"/>
<stop offset="0.704696" stop-color="#FFA7E2"/>
<stop offset="0.971703" stop-color="#AFC4FF"/>
</linearGradient>
<linearGradient id="paint5_linear_86_48" x1="287.618" y1="336.916" x2="408.752" y2="242.913" gradientUnits="userSpaceOnUse">
<stop offset="0.393821" stop-color="#DAE4FF"/>
<stop offset="1" stop-color="#6D93FB"/>
</linearGradient>
<linearGradient id="paint6_linear_86_48" x1="59.5617" y1="92.9393" x2="520.308" y2="265.478" gradientUnits="userSpaceOnUse">
<stop offset="0.0811716" stop-color="#FFCBA0"/>
<stop offset="0.320335" stop-color="#FFA7E2"/>
<stop offset="0.704696" stop-color="#FFA7E2"/>
<stop offset="0.971703" stop-color="#AFC4FF"/>
</linearGradient>
<linearGradient id="paint7_linear_86_48" x1="320.499" y1="301.037" x2="424.01" y2="187.92" gradientUnits="userSpaceOnUse">
<stop offset="0.393821" stop-color="#DAE4FF"/>
<stop offset="1" stop-color="#6D93FB"/>
</linearGradient>
<linearGradient id="paint8_linear_86_48" x1="56.2558" y1="98.9477" x2="537.982" y2="198.933" gradientUnits="userSpaceOnUse">
<stop offset="0.0811716" stop-color="#FFCBA0"/>
<stop offset="0.320335" stop-color="#FFA7E2"/>
<stop offset="0.704696" stop-color="#FFA7E2"/>
<stop offset="0.971703" stop-color="#AFC4FF"/>
</linearGradient>
<linearGradient id="paint9_linear_86_48" x1="345.97" y1="264.656" x2="430.947" y2="137.028" gradientUnits="userSpaceOnUse">
<stop offset="0.393821" stop-color="#DAE4FF"/>
<stop offset="1" stop-color="#6D93FB"/>
</linearGradient>
<linearGradient id="paint10_linear_86_48" x1="58.5383" y1="100.014" x2="550.321" y2="114.386" gradientUnits="userSpaceOnUse">
<stop offset="0.0811716" stop-color="#FFCBA0"/>
<stop offset="0.320335" stop-color="#FFA7E2"/>
<stop offset="0.704696" stop-color="#FFA7E2"/>
<stop offset="0.971703" stop-color="#AFC4FF"/>
</linearGradient>
<linearGradient id="paint11_linear_86_48" x1="372.727" y1="212.613" x2="434.125" y2="72.1122" gradientUnits="userSpaceOnUse">
<stop offset="0.393821" stop-color="#DAE4FF"/>
<stop offset="1" stop-color="#6D93FB"/>
</linearGradient>
</defs>
</svg>
