<svg width="74" height="70" viewBox="0 0 74 70" fill="none" xmlns="http://www.w3.org/2000/svg">
<path d="M59.1836 16.1185C60.7389 15.3034 63.2189 14.4214 65.6436 15.4994C66.7212 15.9787 67.6148 16.7041 67.9883 17.7757C68.3592 18.8408 68.0652 19.8145 67.7422 20.4544C67.4576 21.0182 67.0716 21.4825 66.7646 21.808L66.7695 21.8138L66.7031 21.8734C66.682 21.8953 66.6628 21.9184 66.6426 21.9388C66.4741 22.1091 66.3218 22.2469 66.209 22.3441C66.1525 22.3927 66.1044 22.4321 66.0684 22.4613C66.0504 22.4758 66.0345 22.4879 66.0225 22.4974C66.0166 22.5021 66.0112 22.5067 66.0068 22.5101C66.0048 22.5117 66.0027 22.5137 66.001 22.515L65.998 22.516L54.1387 33.3265C65.4297 34.9845 73.095 38.2183 73.0957 41.9349C73.0957 41.956 73.0923 41.9774 73.0918 41.9984L73.8936 42.1771L69.6533 61.2845L69.0449 61.1488L69.4961 61.6078L69.4941 61.6107L69.4775 61.6273C69.4687 61.6357 69.4568 61.6459 69.4443 61.6576C69.4191 61.6812 69.3862 61.7123 69.3457 61.7484C69.2641 61.8211 69.1503 61.9181 69.0039 62.0355C68.71 62.271 68.281 62.5897 67.7012 62.9613C66.5399 63.7054 64.7735 64.6629 62.2656 65.6078C57.2478 67.4982 49.2784 69.3313 37.25 69.3314C25.2419 69.3313 17.5199 67.6729 12.7412 65.9544C10.3515 65.095 8.69869 64.2208 7.61816 63.5345C7.07866 63.1918 6.68233 62.8963 6.40918 62.6742C6.27285 62.5633 6.1663 62.4707 6.08887 62.3998C6.05045 62.3646 6.01896 62.334 5.99414 62.3099L5.94141 62.2572C5.94086 62.2562 5.95035 62.2468 6.33398 61.8734L5.8457 62.0238L0 42.9164L0.740234 42.6888C0.670189 42.4402 0.634781 42.1884 0.634766 41.9349C0.635405 38.5227 7.09572 35.5194 16.8916 33.7669L19.2031 36.9056C16.6025 37.3147 14.2333 37.8074 12.1533 38.3695C9.03662 39.2117 6.76501 40.154 5.35449 41.055C4.73694 41.4496 4.41297 41.7486 4.24707 41.9349C4.41288 42.1212 4.73666 42.421 5.35449 42.8158C6.76504 43.7167 9.03668 44.6591 12.1533 45.5013C16.2327 46.6036 21.4235 47.4436 27.2939 47.89L28.3281 49.2943L29.8457 48.0589C32.1067 48.1823 34.4543 48.2484 36.8652 48.2484C46.6541 48.2483 55.393 47.1724 61.5771 45.5013C64.6941 44.659 66.9665 43.7168 68.377 42.8158C68.9941 42.4214 69.3166 42.1211 69.4824 41.9349C69.3166 41.7487 68.9936 41.4491 68.377 41.055C66.9666 40.154 64.694 39.2118 61.5771 38.3695C56.6208 37.0302 50.0232 36.0746 42.5596 35.7474L39.2939 31.3128L56.5479 17.9076C56.566 17.892 56.5858 17.8753 56.6064 17.8578C56.7444 17.7408 56.9401 17.5805 57.1836 17.3958C57.6676 17.0288 58.3607 16.5498 59.1836 16.1185ZM69.4316 46.2289C63.5435 49.4829 51.1731 51.7249 36.8652 51.7249C22.8879 51.7249 10.7593 49.585 4.7168 46.4525L8.92969 60.224C9.07818 60.3318 9.26107 60.4593 9.48242 60.5999C10.3351 61.1415 11.7557 61.9044 13.918 62.682C18.2451 64.238 25.5559 65.8548 37.25 65.8548C48.9243 65.8548 56.4703 64.0755 61.04 62.3539C63.3245 61.4931 64.8717 60.6438 65.8242 60.0335C66.0796 59.8699 66.2924 59.7215 66.4658 59.596L69.4316 46.2289ZM64.2305 18.6771C63.3151 18.2703 62.1008 18.5158 60.7979 19.1986C60.1921 19.5161 59.6641 19.879 59.2852 20.1664C59.0978 20.3084 58.9508 20.4285 58.8545 20.5101C58.8369 20.525 58.8208 20.5389 58.8066 20.5511L58.8096 20.555L58.75 20.6009L58.7285 20.6195L58.7275 20.6185L43.6641 32.3197C45.7332 32.4258 47.7405 32.5788 49.6689 32.7757L49.6367 32.7406L63.8711 19.766L63.8721 19.765C63.8727 19.7645 63.8742 19.7637 63.875 19.763L63.877 19.7611L63.8799 19.7591C63.8808 19.7583 63.8818 19.757 63.8828 19.7562L64.1074 19.5511C64.1272 19.5319 64.1499 19.5137 64.1709 19.4925C64.3675 19.2938 64.5368 19.0786 64.6309 18.8968C64.5541 18.8416 64.4284 18.7651 64.2305 18.6771Z" fill="#00E099"/>
<path d="M2.74204 0.892339C5.43172 -0.999515 6.22474 0.699283 6.24107 0.735112L18.0633 18.2127L17.8329 18.3816L22.9432 25.1619L26.787 22.3318C28.7752 20.8679 31.5922 21.2796 33.079 23.2507L43.2626 36.7527L43.367 36.8982C44.3647 38.3711 44.0752 40.3551 42.6981 41.4812L42.5565 41.5906L33.5506 48.2205C32.2902 48.226 30.8393 48.2063 29.2313 48.1404L28.7196 47.4617L40.4618 38.8142L30.2801 25.3123C29.9497 24.8742 29.3225 24.7828 28.8807 25.1082L18.7372 32.5769C18.2955 32.9023 18.2057 33.5217 18.536 33.9597L29.2313 48.1404C28.4164 48.107 27.561 48.0631 26.6698 48.0037C25.9507 47.9557 25.2831 47.9065 24.6639 47.8591L15.7352 36.0212C14.2486 34.05 14.6553 31.2646 16.6434 29.8005L20.1434 27.2224L15.034 20.4441L14.8065 20.6111L1.29771 4.37476C1.26365 4.33178 0.0620179 2.77772 2.74204 0.892339ZM35.0438 35.0837C35.8168 34.5145 36.9122 34.6737 37.4901 35.4402C38.0678 36.2069 37.9094 37.2906 37.1366 37.8601L28.9178 43.9138C28.1448 44.4833 27.0495 44.3231 26.4715 43.5564C25.8938 42.7896 26.052 41.7069 26.8251 41.1375L35.0438 35.0837ZM29.5711 27.822C30.3442 27.2531 31.4396 27.413 32.0174 28.1794C32.5951 28.9461 32.4357 30.0289 31.6629 30.5984L23.4442 36.6531C22.6712 37.2222 21.5768 37.0621 20.9989 36.2957C20.4211 35.529 20.5787 34.4462 21.3514 33.8767L29.5711 27.822Z" fill="#FF9D2D"/>
</svg>
