<svg width="82" height="82" viewBox="0 0 82 82" fill="none" xmlns="http://www.w3.org/2000/svg">
<path fill-rule="evenodd" clip-rule="evenodd" d="M47.8337 20.5H34.167C33.2608 20.5 32.3918 20.8599 31.751 21.5007C31.1103 22.1414 30.7503 23.0105 30.7503 23.9166V58.0833C30.7503 58.9894 31.1103 59.8585 31.751 60.4992C32.3918 61.14 33.2608 61.5 34.167 61.5H47.8337C48.7398 61.5 49.6089 61.14 50.2496 60.4992C50.8904 59.8585 51.2503 58.9894 51.2503 58.0833V23.9166C51.2503 23.0105 50.8904 22.1414 50.2496 21.5007C49.6089 20.8599 48.7398 20.5 47.8337 20.5ZM34.167 13.6666C31.4485 13.6666 28.8414 14.7465 26.9191 16.6688C24.9969 18.591 23.917 21.1982 23.917 23.9166V58.0833C23.917 60.8018 24.9969 63.4089 26.9191 65.3311C28.8414 67.2534 31.4485 68.3333 34.167 68.3333H47.8337C50.5521 68.3333 53.1593 67.2534 55.0815 65.3311C57.0038 63.4089 58.0837 60.8018 58.0837 58.0833V23.9166C58.0837 21.1982 57.0038 18.591 55.0815 16.6688C53.1593 14.7465 50.5521 13.6666 47.8337 13.6666H34.167Z" fill="#6B9FFF"/>
<path d="M20.5 25.4883L11.9344 24.0601C10.4664 23.8156 8.96278 23.8936 7.52799 24.2888C6.09321 24.684 4.76169 25.3869 3.62598 26.3487C2.49027 27.3105 1.57762 28.508 0.951445 29.8581C0.325273 31.2082 0.000602859 32.6784 3.51334e-07 34.1666V50.9664C-0.000389429 52.4552 0.323551 53.9262 0.94929 55.2771C1.57503 56.628 2.48755 57.8264 3.62337 58.7889C4.7592 59.7514 6.09107 60.455 7.52635 60.8506C8.96163 61.2462 10.4659 61.3244 11.9344 61.0797L20.5 59.6481V52.7225L10.8103 54.3352C10.3214 54.4165 9.82058 54.3904 9.3427 54.2588C8.86482 54.1272 8.4213 53.8931 8.04293 53.573C7.66455 53.2528 7.36037 52.8541 7.1515 52.4046C6.94262 51.955 6.83406 51.4655 6.83333 50.9698V34.17C6.83307 33.6738 6.9409 33.1834 7.14934 32.7331C7.35778 32.2827 7.66182 31.8832 8.04032 31.5623C8.41882 31.2413 8.86269 31.0067 9.34105 30.8747C9.81942 30.7426 10.3208 30.7164 10.8103 30.7978L20.5 32.4139V25.4883ZM61.5 25.4883L70.0656 24.0601C71.5336 23.8156 73.0372 23.8936 74.472 24.2888C75.9068 24.684 77.2383 25.3869 78.374 26.3487C79.5097 27.3105 80.4224 28.508 81.0486 29.8581C81.6747 31.2082 81.9994 32.6784 82 34.1666V50.9664C82.0004 52.4552 81.6765 53.9262 81.0507 55.2771C80.425 56.628 79.5125 57.8264 78.3766 58.7889C77.2408 59.7514 75.9089 60.455 74.4737 60.8506C73.0384 61.2462 71.5341 61.3244 70.0656 61.0797L61.5 59.6481V52.7225L71.1897 54.3352C71.6786 54.4165 72.1794 54.3904 72.6573 54.2588C73.1352 54.1272 73.5787 53.8931 73.9571 53.573C74.3355 53.2528 74.6396 52.8541 74.8485 52.4046C75.0574 51.955 75.1659 51.4655 75.1667 50.9698V34.17C75.1669 33.6738 75.0591 33.1834 74.8507 32.7331C74.6422 32.2827 74.3382 31.8832 73.9597 31.5623C73.5812 31.2413 73.1373 31.0067 72.659 30.8747C72.1806 30.7426 71.6792 30.7164 71.1897 30.7978L61.5 32.4139V25.4883Z" fill="#FD8F2F"/>
</svg>
