<svg width="65" height="65" viewBox="0 0 65 65" fill="none" xmlns="http://www.w3.org/2000/svg">
<path d="M52.812 9.20007C53.6042 9.20007 54.3641 9.51502 54.9243 10.0751C55.4844 10.6352 55.7992 11.3953 55.7993 12.1874V58.2284C55.7993 59.0206 55.4844 59.7805 54.9243 60.3407C54.3641 60.9009 53.6043 61.2157 52.812 61.2157H14.896C14.1038 61.2157 13.3439 60.9009 12.7837 60.3407C12.2236 59.7805 11.9087 59.0205 11.9087 58.2284V52.4891H15.1743V57.9501H52.5337V12.4657H43.3335V9.20007H52.812ZM24.3745 12.4657H15.1743V25.8368H11.9087V12.1874C11.9088 11.3953 12.2236 10.6352 12.7837 10.0751C13.3439 9.51497 14.1038 9.2001 14.896 9.20007H24.3745V12.4657Z" fill="#FF5886"/>
<path d="M24.375 17.6042V10.8333H29.724C29.7419 10.8333 29.7591 10.8262 29.7718 10.8135C29.7845 10.8008 29.7917 10.7836 29.7917 10.7656V8.125C29.7917 7.5915 29.8967 7.06323 30.1009 6.57035C30.3051 6.07746 30.6043 5.62962 30.9815 5.25238C31.3588 4.87514 31.8066 4.5759 32.2995 4.37174C32.7924 4.16758 33.3207 4.0625 33.8542 4.0625C34.3877 4.0625 34.9159 4.16758 35.4088 4.37174C35.9017 4.5759 36.3496 4.87514 36.7268 5.25238C37.104 5.62962 37.4033 6.07746 37.6074 6.57035C37.8116 7.06323 37.9167 7.5915 37.9167 8.125V10.7656C37.9167 10.8035 37.9465 10.8333 37.9844 10.8333H43.3333V17.6042C43.3333 17.9633 43.1907 18.3078 42.9367 18.5617C42.6828 18.8157 42.3383 18.9583 41.9792 18.9583H25.7292C25.37 18.9583 25.0256 18.8157 24.7716 18.5617C24.5177 18.3078 24.375 17.9633 24.375 17.6042Z" fill="#FF5886" stroke="#FF5886" stroke-width="3.26633"/>
<path fill-rule="evenodd" clip-rule="evenodd" d="M12.1142 28.9304H14.8084C14.8976 28.9304 14.9832 28.9659 15.0464 29.029C15.1095 29.0921 15.1449 29.1777 15.1449 29.267C15.1449 32.3095 18.4398 34.2127 21.0751 32.6898C21.152 32.6463 21.243 32.6348 21.3283 32.6578C21.4136 32.6808 21.4865 32.7364 21.5311 32.8126L22.8807 35.1484C22.9247 35.2254 22.9365 35.3168 22.9135 35.4025C22.8905 35.4882 22.8346 35.5614 22.7579 35.6061C20.1226 37.1273 20.1226 40.9304 22.7579 42.4534C22.8341 42.498 22.8897 42.5709 22.9127 42.6562C22.9357 42.7415 22.9242 42.8325 22.8807 42.9094L21.5311 45.2451C21.4865 45.3214 21.4136 45.377 21.3283 45.4C21.243 45.4229 21.152 45.4115 21.0751 45.368C18.4398 43.845 15.1449 45.7466 15.1449 48.7874C15.1449 48.8764 15.1097 48.9617 15.047 49.0248C14.9842 49.0879 14.899 49.1235 14.8101 49.124H12.1159C12.0266 49.124 11.941 49.0885 11.8779 49.0254C11.8148 48.9623 11.7793 48.8767 11.7793 48.7874C11.7793 45.7449 8.48444 43.8433 5.84919 45.3646C5.77211 45.4086 5.68076 45.4204 5.59504 45.3974C5.50931 45.3744 5.43614 45.3184 5.39147 45.2418L4.04523 42.906C4.0016 42.8293 3.98985 42.7385 4.01251 42.6532C4.03517 42.5679 4.09044 42.4949 4.16639 42.45C6.80165 40.9271 6.80165 37.124 4.16639 35.601C4.0906 35.5564 4.0353 35.4838 4.01234 35.3989C3.98938 35.314 4.00058 35.2234 4.04355 35.1467L5.39147 32.8093C5.43642 32.7329 5.50971 32.6773 5.59542 32.6546C5.68112 32.6319 5.77231 32.644 5.84919 32.6881C8.48444 34.211 11.7793 32.3078 11.7793 29.2653C11.7793 29.0802 11.9291 28.9304 12.1142 28.9304ZM9.25516 29.267C9.25516 27.6852 10.5341 26.4062 12.1142 26.4062H14.8084C16.3902 26.4062 17.6691 27.6852 17.6691 29.267C17.6696 29.5177 17.736 29.7638 17.8616 29.9808C17.9872 30.1977 18.1676 30.3778 18.3847 30.5031C18.6018 30.6284 18.8481 30.6944 19.0988 30.6945C19.3494 30.6946 19.5957 30.6289 19.813 30.5039C20.4697 30.1257 21.2496 30.0235 21.9815 30.2197C22.7135 30.4159 23.3377 30.8946 23.7171 31.5505L25.0667 33.8863C25.8559 35.2544 25.3864 37.0011 24.02 37.7903C23.8026 37.9159 23.6222 38.0965 23.4967 38.3139C23.3712 38.5313 23.3051 38.7779 23.3051 39.0289C23.3051 39.2799 23.3712 39.5265 23.4967 39.7439C23.6222 39.9613 23.8026 40.1418 24.02 40.2674C24.676 40.6468 25.1546 41.271 25.3508 42.003C25.5471 42.7349 25.4449 43.5148 25.0667 44.1715L23.7171 46.5072C23.3377 47.1632 22.7135 47.6418 21.9815 47.8381C21.2496 48.0343 20.4697 47.9321 19.813 47.5539C19.5957 47.4289 19.3494 47.3631 19.0988 47.3632C18.8481 47.3634 18.6018 47.4294 18.3847 47.5546C18.1676 47.6799 17.9872 47.86 17.8616 48.077C17.736 48.2939 17.6696 48.5401 17.6691 48.7908C17.6691 50.3709 16.3902 51.6515 14.8101 51.6515H12.1159C11.3575 51.6511 10.6303 51.3495 10.0941 50.813C9.55801 50.2766 9.25684 49.5492 9.25684 48.7908C9.25634 48.5401 9.18997 48.2939 9.06438 48.077C8.93879 47.86 8.75839 47.6799 8.54126 47.5546C8.32413 47.4294 8.07789 47.3634 7.82721 47.3632C7.57653 47.3631 7.33022 47.4289 7.11296 47.5539C6.45628 47.9321 5.67638 48.0343 4.94443 47.8381C4.21248 47.6418 3.5883 47.1632 3.20888 46.5072L1.85928 44.1715C1.48109 43.5148 1.37889 42.7349 1.57513 42.003C1.77137 41.271 2.25 40.6468 2.90598 40.2674C3.12293 40.1417 3.30304 39.9612 3.42825 39.744C3.55345 39.5268 3.61936 39.2804 3.61936 39.0297C3.61936 38.779 3.55345 38.5327 3.42825 38.3154C3.30304 38.0982 3.12293 37.9177 2.90598 37.792C2.25 37.4126 1.77137 36.7884 1.57513 36.0565C1.37889 35.3245 1.48109 34.5446 1.85928 33.8879L3.2072 31.5505C3.58661 30.8946 4.2108 30.4159 4.94275 30.2197C5.6747 30.0235 6.4546 30.1257 7.11128 30.5039C7.32854 30.6289 7.57485 30.6946 7.82553 30.6945C8.0762 30.6944 8.32244 30.6284 8.53958 30.5031C8.75671 30.3778 8.93711 30.1977 9.0627 29.9808C9.18829 29.7638 9.25466 29.5177 9.25516 29.267ZM15.9863 39.0272C15.9863 39.6967 15.7204 40.3387 15.247 40.8121C14.7736 41.2854 14.1316 41.5514 13.4621 41.5514C12.7927 41.5514 12.1506 41.2854 11.6773 40.8121C11.2039 40.3387 10.938 39.6967 10.938 39.0272C10.938 38.3577 11.2039 37.7157 11.6773 37.2423C12.1506 36.7689 12.7927 36.503 13.4621 36.503C14.1316 36.503 14.7736 36.7689 15.247 37.2423C15.7204 37.7157 15.9863 38.3577 15.9863 39.0272ZM18.5105 39.0272C18.5105 40.3661 17.9786 41.6502 17.0319 42.5969C16.0851 43.5437 14.8011 44.0756 13.4621 44.0756C12.1232 44.0756 10.8392 43.5437 9.8924 42.5969C8.94564 41.6502 8.41376 40.3661 8.41376 39.0272C8.41376 37.6883 8.94564 36.4042 9.8924 35.4575C10.8392 34.5107 12.1232 33.9788 13.4621 33.9788C14.8011 33.9788 16.0851 34.5107 17.0319 35.4575C17.9786 36.4042 18.5105 37.6883 18.5105 39.0272Z" fill="#FD8F2F"/>
</svg>
