<svg width="82" height="82" viewBox="0 0 82 82" fill="none" xmlns="http://www.w3.org/2000/svg">
<path d="M51.25 23.0625C52.6652 23.0625 53.8125 21.9152 53.8125 20.5C53.8125 19.0848 52.6652 17.9375 51.25 17.9375C49.8348 17.9375 48.6875 19.0848 48.6875 20.5C48.6875 21.9152 49.8348 23.0625 51.25 23.0625Z" fill="#FFA63F"/>
<path d="M58.9375 23.0625C60.3527 23.0625 61.5 21.9152 61.5 20.5C61.5 19.0848 60.3527 17.9375 58.9375 17.9375C57.5223 17.9375 56.375 19.0848 56.375 20.5C56.375 21.9152 57.5223 23.0625 58.9375 23.0625Z" fill="#FFA63F"/>
<path d="M66.625 23.0625C68.0402 23.0625 69.1875 21.9152 69.1875 20.5C69.1875 19.0848 68.0402 17.9375 66.625 17.9375C65.2098 17.9375 64.0625 19.0848 64.0625 20.5C64.0625 21.9152 65.2098 23.0625 66.625 23.0625Z" fill="#FFA63F"/>
<path d="M71.75 10.25H10.25C8.89077 10.25 7.5872 10.79 6.62608 11.7511C5.66495 12.7122 5.125 14.0158 5.125 15.375V66.625C5.125 67.9842 5.66495 69.2878 6.62608 70.2489C7.5872 71.21 8.89077 71.75 10.25 71.75H71.75C73.1092 71.75 74.4128 71.21 75.3739 70.2489C76.335 69.2878 76.875 67.9842 76.875 66.625V15.375C76.875 14.0158 76.335 12.7122 75.3739 11.7511C74.4128 10.79 73.1092 10.25 71.75 10.25ZM71.75 15.375V25.625H10.25V15.375H71.75ZM10.25 30.75H25.625V66.625H10.25V30.75ZM30.75 66.625V30.75H71.75V66.625H30.75Z" fill="#FFA63F"/>
</svg>
