<svg width="61" height="61" viewBox="0 0 61 61" fill="none" xmlns="http://www.w3.org/2000/svg">
<path d="M4.62484 45.5937V56.375H15.4061L47.2036 24.5487L36.4223 13.7675L4.62484 45.5937ZM61.0036 48.785L48.7849 61.0037L33.8348 46.0537L38.9236 40.965L41.7986 43.84L48.8998 36.71L52.9823 40.7925L48.7849 44.875L51.8324 47.75L55.9149 43.725L61.0036 48.785ZM15.0036 27.1362L-0.00390625 12.215L12.2148 -0.00378418L17.2748 5.08497L10.1736 12.215L13.2498 15.2625L20.3223 8.13247L24.4048 12.215L20.3223 16.2687L23.1973 19.1437L15.0036 27.1362ZM55.5411 16.125C56.6623 15.0037 56.6623 13.25 55.5411 12.0712L48.8136 5.45872C47.7499 4.33747 45.8811 4.33747 44.7598 5.45872L39.4698 10.72L50.2511 21.5012L55.5411 16.125Z" fill="#00E099"/>
</svg>
