<svg width="30" height="50" viewBox="0 0 1236 1920" fill="none" xmlns="http://www.w3.org/2000/svg">
<path d="M591.045 965.373C591.045 1124.63 459.537 1253.73 297.313 1253.73C135.09 1253.73 3.58191 1124.63 3.58191 965.373C3.58191 806.117 135.09 677.014 297.313 677.014C459.537 677.014 591.045 806.117 591.045 965.373ZM106.388 965.373C106.388 1068.89 191.868 1152.81 297.313 1152.81C402.758 1152.81 488.239 1068.89 488.239 965.373C488.239 861.856 402.758 777.94 297.313 777.94C191.868 777.94 106.388 861.856 106.388 965.373Z" fill="#FD8F2F"/>
<path d="M591.045 1631.64C591.045 1790.9 459.537 1920 297.313 1920C135.09 1920 3.58191 1790.9 3.58191 1631.64C3.58191 1472.39 135.09 1343.28 297.313 1343.28C459.537 1343.28 591.045 1472.39 591.045 1631.64ZM106.388 1631.64C106.388 1735.16 191.868 1819.07 297.313 1819.07C402.758 1819.07 488.239 1735.16 488.239 1631.64C488.239 1528.13 402.758 1444.21 297.313 1444.21C191.868 1444.21 106.388 1528.13 106.388 1631.64Z" fill="#FF5886"/>
<path d="M288.358 587.463C129.102 587.463 -6.10352e-05 455.955 -6.10352e-05 293.731C-6.10352e-05 131.508 129.102 0 288.358 0C447.614 0 576.716 131.508 576.716 293.731C576.716 455.955 447.614 587.463 288.358 587.463ZM288.358 102.806C184.842 102.806 100.925 188.286 100.925 293.731C100.925 399.177 184.842 484.657 288.358 484.657C391.874 484.657 475.791 399.177 475.791 293.731C475.791 188.286 391.874 102.806 288.358 102.806Z" fill="#6B9FFF"/>
<mask id="path-4-inside-1_39_6" fill="white">
<path d="M1184.41 0C1212.8 0 1235.82 23.0186 1235.82 51.4135V958.567C1235.82 1121.58 1103.67 1253.73 940.657 1253.73H717.682C689.287 1253.73 666.269 1230.71 666.269 1202.32V51.4136C666.269 23.0187 689.287 0 717.682 0H1184.41Z"/>
</mask>
<path d="M1184.41 0C1212.8 0 1235.82 23.0186 1235.82 51.4135V958.567C1235.82 1121.58 1103.67 1253.73 940.657 1253.73H717.682C689.287 1253.73 666.269 1230.71 666.269 1202.32V51.4136C666.269 23.0187 689.287 0 717.682 0H1184.41Z" stroke="#00E099" stroke-width="286.567" mask="url(#path-4-inside-1_39_6)"/>
</svg>
