<svg width="82" height="82" viewBox="0 0 82 82" fill="none" xmlns="http://www.w3.org/2000/svg">
<path d="M58.0839 40.9998V58.0837M44.4161 58.0837V51.2498M10.25 51.2498L19.9194 41.5803M27.3339 23.9159C24.6154 23.9159 22.0083 24.9958 20.086 26.918C18.1638 28.8403 17.0839 31.4474 17.0839 34.1659C17.0839 36.8844 18.1638 39.4915 20.086 41.4137C22.0083 43.336 24.6154 44.4159 27.3339 44.4159C30.0523 44.4159 32.6595 43.336 34.5817 41.4137C36.504 39.4915 37.5839 36.8844 37.5839 34.1659C37.5839 31.4474 36.504 28.8403 34.5817 26.918C32.6595 24.9958 30.0523 23.9159 27.3339 23.9159Z" stroke="#FD8F2F" stroke-width="3.87669" stroke-linecap="round" stroke-linejoin="round"/>
<path d="M27.3339 10.25H68.3339C69.2399 10.25 70.1088 10.6099 70.7495 11.2506C71.3901 11.8912 71.75 12.7601 71.75 13.6661V68.3339C71.75 69.2399 71.3901 70.1088 70.7495 70.7494C70.1088 71.3901 69.2399 71.75 68.3339 71.75H27.3339C26.8851 71.7502 26.4408 71.662 26.0261 71.4904C25.6114 71.3189 25.2347 71.0673 24.9173 70.75C24.5999 70.4328 24.3481 70.0561 24.1763 69.6415C24.0046 69.227 23.9161 68.7826 23.9161 68.3339V58.0839" stroke="#306CFE" stroke-width="3.87669" stroke-linecap="round" stroke-linejoin="round"/>
</svg>
