<svg width="82" height="82" viewBox="0 0 82 82" fill="none" xmlns="http://www.w3.org/2000/svg">
<path d="M27.3337 58.0834V51.25H34.7649C34.4802 52.3889 34.2957 53.5278 34.2114 54.6667C34.1271 55.8056 34.1408 56.9445 34.2524 58.0834H27.3337ZM27.3337 75.1667C22.6073 75.1667 18.579 73.5005 15.2489 70.1681C11.9188 66.8357 10.2526 62.8075 10.2503 58.0834V27.3334C8.37116 27.3334 6.76305 26.6648 5.42599 25.3278C4.08894 23.9907 3.41927 22.3815 3.41699 20.5V13.6667C3.41699 11.7875 4.08666 10.1794 5.42599 8.84237C6.76533 7.50532 8.37344 6.83565 10.2503 6.83337H44.417C46.2962 6.83337 47.9054 7.50304 49.2447 8.84237C50.5841 10.1817 51.2526 11.7898 51.2503 13.6667V20.5C51.2503 22.3792 50.5818 23.9885 49.2447 25.3278C47.9077 26.6671 46.2984 27.3357 44.417 27.3334V37.6688C43.0503 38.523 41.7976 39.5195 40.6587 40.6584C39.5198 41.7973 38.5232 43.05 37.6691 44.4167H27.3337V37.5834H37.5837V27.3334H17.0837V58.0834C17.0837 60.9306 18.0802 63.3507 20.0732 65.3438C22.0663 67.3368 24.4864 68.3334 27.3337 68.3334C29.042 68.3334 30.5943 67.9632 31.9906 67.223C33.3869 66.4827 34.5679 65.4577 35.5337 64.148C35.9892 65.2868 36.5017 66.3688 37.0712 67.3938C37.6406 68.4188 38.3239 69.4153 39.1212 70.3834C37.5837 71.8639 35.8184 73.0313 33.8253 73.8855C31.8323 74.7396 29.6684 75.1667 27.3337 75.1667ZM10.2503 20.5H44.417V13.6667H10.2503V20.5ZM56.3753 64.9167C58.767 64.9167 60.7885 64.091 62.4399 62.4396C64.0913 60.7882 64.917 58.7667 64.917 56.375C64.917 53.9834 64.0913 51.9618 62.4399 50.3105C60.7885 48.6591 58.767 47.8334 56.3753 47.8334C53.9837 47.8334 51.9621 48.6591 50.3107 50.3105C48.6594 51.9618 47.8337 53.9834 47.8337 56.375C47.8337 58.7667 48.6594 60.7882 50.3107 62.4396C51.9621 64.091 53.9837 64.9167 56.3753 64.9167ZM73.8003 78.5834L64.5753 69.3584C63.3226 70.1556 62.0128 70.7535 60.6462 71.1521C59.2795 71.5507 57.8559 71.75 56.3753 71.75C52.1045 71.75 48.4749 70.2558 45.4864 67.2674C42.498 64.2789 41.0026 60.6482 41.0003 56.375C40.9981 52.1019 42.4934 48.4723 45.4864 45.4861C48.4794 42.5 52.1091 41.0046 56.3753 41C60.6416 40.9955 64.2724 42.4908 67.2677 45.4861C70.2629 48.4814 71.7572 52.111 71.7503 56.375C71.7503 57.8556 71.551 59.2792 71.1524 60.6459C70.7538 62.0125 70.1559 63.3223 69.3587 64.575L78.5837 73.8L73.8003 78.5834Z" fill="#FF5886"/>
</svg>
