<svg width="82" height="82" viewBox="0 0 82 82" fill="none" xmlns="http://www.w3.org/2000/svg">
<path d="M10.25 41C10.25 45.0381 11.0454 49.0368 12.5907 52.7675C14.136 56.4983 16.4011 59.8881 19.2565 62.7435C22.1119 65.5989 25.5017 67.864 29.2325 69.4093C32.9632 70.9546 36.9619 71.75 41 71.75C45.0381 71.75 49.0368 70.9546 52.7675 69.4093C56.4983 67.864 59.8881 65.5989 62.7435 62.7435C65.5989 59.8881 67.864 56.4983 69.4093 52.7675C70.9546 49.0368 71.75 45.0381 71.75 41C71.75 36.9619 70.9546 32.9632 69.4093 29.2325C67.864 25.5017 65.5989 22.1119 62.7435 19.2565C59.8881 16.4011 56.4983 14.136 52.7675 12.5907C49.0368 11.0454 45.0381 10.25 41 10.25C36.9619 10.25 32.9632 11.0454 29.2325 12.5907C25.5017 14.136 22.1119 16.4011 19.2565 19.2565C16.4011 22.1119 14.136 25.5017 12.5907 29.2325C11.0454 32.9632 10.25 36.9619 10.25 41Z" stroke="#6B9FFF" stroke-width="4.42901" stroke-linecap="round" stroke-linejoin="round"/>
<path d="M23.9167 34.1666V41C23.9167 42.8123 24.6366 44.5504 25.9181 45.8319C27.1996 47.1134 28.9377 47.8333 30.75 47.8333C32.5623 47.8333 34.3004 47.1134 35.5819 45.8319C36.8634 44.5504 37.5834 42.8123 37.5834 41V34.1666M47.8334 34.1666L58.0834 47.8333M47.8334 47.8333L58.0834 34.1666" stroke="#6B9FFF" stroke-width="4.42901" stroke-linecap="round" stroke-linejoin="round"/>
</svg>
