<svg width="82" height="82" viewBox="0 0 82 82" fill="none" xmlns="http://www.w3.org/2000/svg">
<path fill-rule="evenodd" clip-rule="evenodd" d="M59.8758 23.1855C57.973 23.1495 56.082 23.4932 54.3135 24.1965C52.545 24.8998 50.9344 25.9486 49.576 27.2816C48.2175 28.6146 47.1384 30.205 46.4018 31.9599C45.6651 33.7148 45.2857 35.599 45.2857 37.5022C45.2857 39.4054 45.6651 41.2895 46.4018 43.0444C47.1384 44.7993 48.2175 46.3898 49.576 47.7227C50.9344 49.0557 52.545 50.1046 54.3135 50.8079C56.082 51.5112 57.973 51.8549 59.8758 51.8189C63.626 51.7479 67.1985 50.2084 69.8255 47.5312C72.4525 44.854 73.9242 41.253 73.9242 37.5022C73.9242 33.7514 72.4525 30.1504 69.8255 27.4732C67.1985 24.796 63.626 23.2565 59.8758 23.1855ZM37.7461 37.4996C37.7461 31.6311 40.0773 26.003 44.227 21.8533C48.3766 17.7037 54.0048 15.3724 59.8733 15.3724C65.7418 15.3724 71.3699 17.7037 75.5196 21.8533C79.6692 26.003 82.0005 31.6311 82.0005 37.4996C82.0005 43.3681 79.6692 48.9963 75.5196 53.1459C71.3699 57.2956 65.7418 59.6268 59.8733 59.6268C54.0048 59.6268 48.3766 57.2956 44.227 53.1459C40.0773 48.9963 37.7461 43.3681 37.7461 37.4996Z" fill="#00E099"/>
<path fill-rule="evenodd" clip-rule="evenodd" d="M41.651 41.41H18.2246V33.5944H41.651V41.41Z" fill="#00E099"/>
<path d="M20.8225 37.4996C20.8492 38.5418 20.667 39.5788 20.2867 40.5494C19.9063 41.5201 19.3354 42.4048 18.6077 43.1513C17.8801 43.8979 17.0103 44.4912 16.0497 44.8963C15.0891 45.3014 14.0571 45.5102 13.0146 45.5102C11.9721 45.5102 10.9401 45.3014 9.9795 44.8963C9.01891 44.4912 8.14914 43.8979 7.42146 43.1513C6.69379 42.4048 6.12293 41.5201 5.74255 40.5494C5.36217 39.5788 5.17996 38.5418 5.20666 37.4996C5.25883 35.4634 6.10435 33.5282 7.56293 32.1065C9.02152 30.6848 10.9778 29.8892 13.0146 29.8892C15.0514 29.8892 17.0077 30.6848 18.4663 32.1065C19.9249 33.5282 20.7704 35.4634 20.8225 37.4996Z" fill="#00E099"/>
<path fill-rule="evenodd" clip-rule="evenodd" d="M13.0175 34.9013C12.6662 34.8857 12.3154 34.9414 11.9863 35.0651C11.6571 35.1888 11.3564 35.3778 11.1024 35.6209C10.8483 35.864 10.646 36.156 10.5079 36.4793C10.3697 36.8026 10.2985 37.1506 10.2985 37.5022C10.2985 37.8539 10.3697 38.2018 10.5079 38.5252C10.646 38.8485 10.8483 39.1405 11.1024 39.3836C11.3564 39.6266 11.6571 39.8157 11.9863 39.9394C12.3154 40.0631 12.6662 40.1188 13.0175 40.1032C13.6873 40.0734 14.3199 39.7864 14.7834 39.3019C15.2468 38.8174 15.5055 38.1727 15.5055 37.5022C15.5055 36.8317 15.2468 36.1871 14.7834 35.7026C14.3199 35.2181 13.6873 34.931 13.0175 34.9013ZM0 37.4997C-2.54733e-08 35.7902 0.336708 34.0975 0.990898 32.5181C1.64509 30.9387 2.60395 29.5037 3.81274 28.2949C5.02152 27.0861 6.45656 26.1273 8.03592 25.4731C9.61527 24.8189 11.308 24.4822 13.0175 24.4822C14.727 24.4822 16.4197 24.8189 17.9991 25.4731C19.5784 26.1273 21.0135 27.0861 22.2223 28.2949C23.4311 29.5037 24.3899 30.9387 25.0441 32.5181C25.6983 34.0975 26.035 35.7902 26.035 37.4997C26.035 40.9521 24.6635 44.2632 22.2223 46.7044C19.781 49.1457 16.47 50.5172 13.0175 50.5172C9.56504 50.5172 6.25399 49.1457 3.81274 46.7044C1.37148 44.2632 5.14456e-08 40.9521 0 37.4997Z" fill="#00E099"/>
</svg>
