<svg width="83" height="64" viewBox="0 0 83 64" fill="none" xmlns="http://www.w3.org/2000/svg">
<rect width="58.5714" height="58.5714" transform="translate(0 5.36731)" fill="white"/>
<path d="M29.2861 39.5336C40.073 39.5336 48.8096 43.9028 48.8096 49.2963V54.1771H9.7627V49.2963C9.7627 43.9028 18.4992 39.5336 29.2861 39.5336ZM29.2861 15.1293C29.9763 15.1293 30.6585 15.2042 31.3232 15.3461C30.127 17.7201 29.4531 20.4027 29.4531 23.2426C29.4532 27.2484 30.7948 30.9403 33.0518 33.8959C31.87 34.3901 30.5919 34.6527 29.2861 34.6527C26.6973 34.6527 24.2145 33.6248 22.3838 31.7943C20.5531 29.9636 19.5244 27.48 19.5244 24.891C19.5245 22.302 20.5531 19.8193 22.3838 17.9886C24.2145 16.158 26.6972 15.1293 29.2861 15.1293Z" fill="#6B9FFF"/>
<path d="M71.8332 51.25L56.4582 35.875C55.238 36.8512 53.8347 37.624 52.2484 38.1934C50.6621 38.7629 48.9741 39.0476 47.1844 39.0476C42.7509 39.0476 38.999 37.5117 35.9289 34.44C32.8588 31.3682 31.3229 27.6164 31.3213 23.1845C31.3197 18.7526 32.8555 15.0008 35.9289 11.929C39.0023 8.85728 42.7541 7.32141 47.1844 7.32141C51.6147 7.32141 55.3673 8.85728 58.4423 11.929C61.5173 15.0008 63.0524 18.7526 63.0475 23.1845C63.0475 24.9742 62.7628 26.6622 62.1933 28.2485C61.6239 29.8348 60.8511 31.2381 59.8749 32.4583L75.2499 47.8333L71.8332 51.25ZM47.1844 34.1667C50.235 34.1667 52.8284 33.0993 54.9646 30.9647C57.1009 28.8301 58.1682 26.2367 58.1665 23.1845C58.1649 20.1323 57.0976 17.5397 54.9646 15.4067C52.8316 13.2737 50.2382 12.2056 47.1844 12.2024C44.1305 12.1991 41.5379 13.2672 39.4066 15.4067C37.2752 17.5462 36.2071 20.1388 36.2022 23.1845C36.1974 26.2302 37.2655 28.8236 39.4066 30.9647C41.5477 33.1059 44.1403 34.1732 47.1844 34.1667Z" fill="#FD8F2F"/>
</svg>
