<svg width="82" height="82" viewBox="0 0 82 82" fill="none" xmlns="http://www.w3.org/2000/svg">
<path d="M5.125 41C5.125 50.5146 8.90468 59.6396 15.6325 66.3675C22.3604 73.0953 31.4854 76.875 41 76.875C50.5146 76.875 59.6396 73.0953 66.3675 66.3675C73.0953 59.6396 76.875 50.5146 76.875 41C76.875 31.4854 73.0953 22.3604 66.3675 15.6325C59.6396 8.90468 50.5146 5.125 41 5.125C31.4854 5.125 22.3604 8.90468 15.6325 15.6325C8.90468 22.3604 5.125 31.4854 5.125 41Z" stroke="#00E099" stroke-width="4.7204" stroke-linejoin="round"/>
<path d="M25.625 41C25.625 31.4854 27.2449 22.3604 30.1282 15.6325C33.0116 8.90468 36.9223 5.125 41 5.125C45.0777 5.125 48.9884 8.90468 51.8718 15.6325C54.7551 22.3604 56.375 31.4854 56.375 41C56.375 50.5146 54.7551 59.6396 51.8718 66.3675C48.9884 73.0953 45.0777 76.875 41 76.875C36.9223 76.875 33.0116 73.0953 30.1282 66.3675C27.2449 59.6396 25.625 50.5146 25.625 41Z" stroke="#00E099" stroke-width="4.7204" stroke-linejoin="round"/>
<path d="M7.6875 52.9584H74.3125M7.6875 29.0417H74.3125" stroke="#00E099" stroke-width="4.7204" stroke-linecap="round"/>
</svg>
